<?xml version="1.0" encoding="utf-8"?>
<!-- Generator: Adobe Illustrator 26.1.0, SVG Export Plug-In . SVG Version: 6.00 Build 0)  -->
<svg version="1.1" id="Layer_1" xmlns="http://www.w3.org/2000/svg" xmlns:xlink="http://www.w3.org/1999/xlink" x="0px" y="0px"
	 viewBox="0 0 206.2 142.8" style="enable-background:new 0 0 206.2 142.8;" xml:space="preserve">
<style type="text/css">
	.st0{display:none;}
	.st1{display:inline;opacity:0.46;enable-background:new    ;}
	.st2{fill:#9F4A23;}
	.st3{fill:#4E542E;}
	.st4{fill:#CB9531;}
</style>
<g id="Layer_3" class="st0">
	<rect x="39.6" y="-13.5" class="st1" width="124" height="124"/>
</g>
<path class="st2" d="M149.9,89.5c-2.7-4.5-6.3-6.7-9.3-7.8c2.6-2.8,4.9-6,7-9.7c0.1-0.2,0.2-0.4,0.3-0.6c0.1-0.1,0.1-0.2,0.2-0.4
	c0.4-0.7,0.5-1.7,0.2-2.5c-0.2-0.7-0.8-1.3-1.7-1.9l-0.2-0.1c-1.6-0.7-3.4-0.1-4.2,1.5l-0.1,0.2c-0.1,0.2-0.2,0.4-0.3,0.7
	c-3.5,6.2-8.4,11.5-14.3,15.3c-9.2,5.8-21.2,7.9-32.3,5.6c-4.4-0.9-8.5-2.4-12.2-4.5C75.4,81,69,74.7,65.4,67.9
	c-0.8-1.5-2.6-2.2-4.2-1.5L61,66.5c0,0-0.1,0-0.1,0.1c-0.9,0.4-1.4,1-1.7,1.9c-0.2,0.7-0.2,1.6,0.2,2.5c0.9,1.8,2,3.5,3.2,5.1
	l-6.6-0.6c-1.7-0.1-3.3,1.1-3.5,2.9v0.2c-0.2,0.9-0.1,1.7,0.4,2.4c0.5,0.7,1.3,1.2,2.2,1.2l13.8,1.3c3.2,2.9,6.7,5.5,10.6,7.6
	c4.5,2.5,9.2,4.2,14.2,5.2c3.2,0.7,6.6,1,10.4,1c9.8,0,19.3-2.7,26.9-7.5c1.2-0.8,2.5-1.7,3.7-2.6c1.9,0.2,6.6,1,9.5,5.8
	c0.8,1.4,2.6,1.9,4.1,1.2l0.2-0.1c0.1,0,0.1-0.1,0.2-0.1c0.3-0.2,1.3-0.9,1.6-1.9C150.4,91.2,150.3,90.3,149.9,89.5z"/>
<g>
	<path class="st3" d="M57.2,74.3c0.4,0,0.8-0.4,0.9-0.8c0-0.2,1-5.2-2-9c-2-2.5-5.3-3.9-9.8-4c-0.4,0-0.9,0.3-1,0.8
		c0,0.2-1,4.8,1.2,7.9c3.2,4.7,8.2,5.2,10,5.2C56.9,74.3,57.2,74.3,57.2,74.3z"/>
	<path class="st3" d="M68.5,83.7c-0.3-0.1-6.3-2.3-10.7,1.4c-4.5,3.6-3.5,9-3.4,9.3c0.1,0.4,0.4,0.7,0.7,0.8c0.1,0,1.3,0.3,3,0.3
		c2,0,4.6-0.4,7-2.1c4.6-3.2,4.1-8.6,4-8.8C69.1,84.1,68.8,83.8,68.5,83.7z"/>
	<path class="st3" d="M136.1,88.7c-0.4-0.2-1,0-1.2,0.4c-0.1,0.2-3.3,5.2-1.8,9.9c1.4,4.9,8,6.9,8.3,7c0.1,0,0.2,0,0.3,0
		c0.3,0,0.7-0.2,0.8-0.5c0.1-0.2,3.1-5,1.6-9.5C142.5,91.6,136.4,88.8,136.1,88.7z"/>
	<path class="st3" d="M159.7,77c-0.2-0.1-3.9-3.5-9.9-2.8c0,0,0,0,0,0c-6.1,0.8-7.7,6.7-7.7,6.9c-0.1,0.4,0,0.8,0.3,1
		c0.2,0.1,3.8,3,8,3c1,0,1.9-0.2,2.9-0.5c5.1-1.9,6.6-6.4,6.7-6.6C160.1,77.7,160,77.3,159.7,77z"/>
</g>
<path class="st4" d="M139.9,18.3c-0.1-0.1-0.2-0.3-0.2-0.4c0,0,0-0.1-0.1-0.1c0-0.1-0.1-0.1-0.1-0.2c0-0.1-0.1-0.2-0.3-0.4
	c-0.2-0.2-0.3-0.3-0.6-0.4c-0.1,0-0.1-0.1-0.2-0.1c0,0-0.1,0-0.1-0.1L105.1,0.3c-0.9-0.4-1.9-0.4-2.8,0L69.5,16.8c0,0,0,0-0.1,0
	c-0.1,0-0.2,0.1-0.3,0.1c-0.1,0-0.2,0.1-0.2,0.1c-0.1,0-0.2,0.1-0.3,0.2c-0.1,0.1-0.3,0.3-0.4,0.6c0,0,0,0.1-0.1,0.1
	C68,18.2,68,18.3,68,18.4c0,0,0,0,0,0c-0.2,0.2-0.3,0.4-0.3,0.7c0,0.1-0.1,0.3-0.1,0.5v45.8c0,0.3,0,0.8,0.4,1.3
	c0.1,0.1,0.2,0.3,0.2,0.3c1.9,2.3,3.8,4.6,6.1,6.8c2,1.9,4.2,3.6,7.1,5.4c3.2,2,6.4,3.5,9.5,4.7c4.8,1.8,9.5,2.7,13.9,2.7
	c2.6,0,5-0.2,7.1-0.7c7-1.6,14-5.6,20.3-11.4c2.5-2.3,4.9-4.9,7.1-7.7c0-0.1,0.1-0.1,0.1-0.2c0.2-0.2,0.4-0.5,0.5-1
	c0.2-0.4,0.2-0.8,0.2-1.4V19C140.1,18.7,140,18.5,139.9,18.3z M110.6,79.8c-1.1,0.2-2.3,0.4-3.4,0.5V37.3l4.8-2.3v9.3
	c0,1,0.6,2,1.4,2.6c0.5,0.3,1,0.5,1.7,0.5c0.5,0,0.9-0.1,1.2-0.3c0,0,0.1,0,0.1,0l10.6-5c1.1-0.5,1.8-1.6,1.8-2.8V27l5.2-2.5v39.1
	c0,0,0,0-0.1,0.1c-4.4,5.2-8.8,9.2-13.6,12.2C117,77.9,113.8,79.2,110.6,79.8C110.6,79.8,110.6,79.8,110.6,79.8z M120.3,24.1
	l-9.5-4.7l9.5-4.7l9.7,4.8L120.3,24.1z M122.6,30.4v6.9l-4.4,2.1v-6.9L122.6,30.4z M103.9,22.8l9.3,4.6l-9.3,4.4l-9.3-4.4
	L103.9,22.8z M103.9,16l-9.6-4.8l9.4-4.7l9.6,4.8L103.9,16z M77.9,19.4l9.6-4.8l9.5,4.7L87.6,24L77.9,19.4z M89.5,32.4v6.9l-4.4-2.1
	v-6.9L89.5,32.4z M80.8,41.8l10.6,5c0,0,0.1,0,0.1,0c0.4,0.1,0.8,0.3,1.2,0.3c0.6,0,1.2-0.2,1.7-0.5c0.9-0.6,1.4-1.6,1.4-2.6v-9.2
	l4.9,2.3v43.1c-2.6-0.4-5.2-1-7.5-2c-4-1.6-7.6-3.5-10.6-5.7c-3.2-2.3-5.9-4.8-7.9-7.6L74,64.1c0-0.1-0.1-0.1-0.1-0.2c0,0,0,0,0,0
	V24.4l5.1,2.4V39C79,40.1,79.7,41.2,80.8,41.8z"/>
<g>
	<path class="st3" d="M138.7,107.6h-5c-0.5,0-0.9,0.4-0.9,0.9v19.6c0,0.9-1.1,1.2-1.6,0.5L117.8,108c-0.2-0.2-0.4-0.4-0.7-0.4h-4.3
		c-0.5,0-0.9,0.4-0.9,0.9v33.4c0,0.5,0.4,0.9,0.9,0.9h5.2c0.5,0,0.9-0.4,0.9-0.9v-19.5c0-0.9,1.1-1.2,1.6-0.5l12.9,20.4
		c0.2,0.3,0.4,0.4,0.7,0.4h4.6c0.5,0,0.9-0.4,0.9-0.9v-33.4C139.6,108,139.2,107.6,138.7,107.6z"/>
	<path class="st3" d="M167,126.2c-1.1-5-5.1-8.1-10.1-8.6c-0.7-0.1-1.4-0.1-2.1-0.1c-12.2,0-12.2,12.3-12.2,12.3
		c0,1,0.1,1.9,0.3,2.8c0.4,2.1,1.3,4,2.7,5.6c2.1,2.4,5.1,3.6,8.2,4c3.8,0.5,7.8-0.2,10.7-2.8c0.4-0.4,0.8-0.8,1.2-1.3
		c0.3-0.4,0.2-0.9-0.2-1.1l-3.5-2.4c-0.4-0.2-0.8-0.2-1.1,0.2c-0.6,0.9-2.2,2.4-5.4,2.4c-3.2,0-5.1-2.6-5.9-4.1
		c-0.3-0.5,0.1-1.2,0.7-1.2l16.2,0c0.4,0,0.8-0.4,0.8-0.8c0-1.1,0-2.1,0-3.2C167.2,127.3,167.1,126.8,167,126.2z M160.2,127.9h-10.5
		c-0.5,0-0.9-0.5-0.8-1c0.5-1.6,1.9-4.5,5.9-4.5c4,0,5.5,2.9,6.1,4.5C161.2,127.3,160.8,127.9,160.2,127.9z"/>
	<path class="st3" d="M181.4,127.8c-1.8-0.3-4-0.8-5.4-2.1c-0.3-0.3-0.6-0.8-0.6-1.2c0-0.3,0.1-0.6,0.2-0.8c0.3-0.5,0.8-0.9,1.4-1.1
		c1.8-0.6,3.9,0,5,1.6c0.2,0.3,0.6,0.4,0.9,0.3l4.1-1.5c0.4-0.2,0.6-0.7,0.4-1.1c-0.7-1.4-2.9-4.3-9.1-4.3c-9.5,0-9.3,7.4-9.3,7.4
		s-0.2,5.7,7.6,7c1.7,0.3,3.7,0.8,4.9,2.1c0.3,0.3,0.5,0.6,0.6,1c0.1,0.5-0.1,1.1-0.4,1.6c-0.8,0.9-2.1,1.2-3.2,1.2
		c-2.7,0-4.3-1.8-4.9-2.8c-0.2-0.3-0.6-0.4-1-0.3l-3.9,1.6c-0.4,0.2-0.6,0.6-0.4,1c0.7,1.6,3.1,5.4,10.7,5.4c9.6,0,9.6-8.1,9.6-8.1
		S188.9,129.4,181.4,127.8z"/>
	<path class="st3" d="M205.4,122.9c0.4,0,0.8-0.4,0.8-0.8v-4c0-0.5-0.4-0.8-0.8-0.8h-4.3c-0.4,0-0.8-0.4-0.8-0.8l0.1-5.9
		c0-0.5-0.4-0.8-0.8-0.8h-4.8c-0.4,0-0.8,0.4-0.8,0.8v4.6c0,1.3-1,2.3-2.3,2.3h-1.4c-0.4,0-0.8,0.4-0.8,0.8v3.8
		c0,0.5,0.4,0.8,0.8,0.8h2.6c0.4,0,0.8,0.4,0.8,0.8v11.2c0,0-0.4,6.4,6.6,7.7c2.6,0.2,4.2,0.2,5,0.1c0.4,0,0.7-0.4,0.7-0.8v-4.1
		c0-0.5-0.4-0.8-0.8-0.8h-2.2c-1.7,0-3-1.4-3-3.1v-10.9H205.4z"/>
</g>
<g>
	<path class="st2" d="M28.9,137.8c-0.7-0.1-1.6-0.1-2.1-0.7c-0.4-0.5-0.4-1.4-0.4-2c0-0.4,0-0.9,0-1.3c0-1.1,0-2.2,0-3.4
		c0-1.5,0-3,0-4.5c0-1.6,0-3.2,0-4.7c0-1.4,0-2.7,0-4.1c0-1.5-0.1-3,0.2-4.4c0-0.1,0-0.1,0.1-0.2c0.1-0.1,0.1-0.1,0.2-0.1
		c0.7-0.2,1.4-0.3,2.2-0.4c0.9-0.2,1.5-0.9,1.5-1.8v-0.8c0-1-0.8-1.8-1.8-1.8H18.1c-1,0-1.8,0.8-1.8,1.8c0,0,0,0.8,0,0.8
		c0,0.7,0.4,1.3,1,1.6c0.3,0.2,0.7,0.2,1.1,0.3c0.5,0.1,1,0.2,1.4,0.3c0.1,0,0.2,0,0.2,0.1c0,0.1,0.1,0.1,0.1,0.2
		c0.3,1.2,0.2,2.5,0.2,3.7c0,1.2,0,2.4,0,3.6c0,0.8,0,1.6,0,2.4c0,0-10,0-10,0c0-1.8,0-3.6,0-5.5c0-1.4-0.1-2.9,0.2-4.2
		c0-0.1,0-0.1,0.1-0.2c0-0.1,0.1-0.1,0.2-0.1c0.7-0.2,1.4-0.3,2.1-0.4c0.9-0.1,1.6-0.9,1.6-1.8v-0.8c0-1-0.8-1.8-1.8-1.8H1.8
		c-1,0-1.8,0.8-1.8,1.8c0,0,0,0.8,0,0.8c0,2.1,2.3,1.7,3.6,2.2c0.1,0,0.1,0.1,0.2,0.1c0,0,0.1,0.1,0.1,0.2c0.2,1.1,0.2,2.2,0.2,3.3
		c0,1.2,0,2.3,0,3.5c0,3,0,5.9,0,8.9c0,2,0,4,0,6c0,0.1,0,0.2,0,0.2c0,0.8,0.1,2.2-0.6,2.8c-0.4,0.4-1.2,0.4-1.8,0.5
		c-0.9,0.1-1.7,0.9-1.7,1.8v0.8c0,1,0.8,1.8,1.8,1.8h10.7c1,0,1.8-0.8,1.8-1.8c0,0,0-0.8,0-0.8c0-1.7-1.6-1.8-2.9-2.1
		c-0.3-0.1-0.6-0.1-0.8-0.4c-0.1-0.1-0.2-0.3-0.2-0.5c-0.2-0.8-0.2-9.3-0.2-9.3c0,0,10,0,10,0s0,7.1,0,7.1c0,0.8,0,1.7-0.3,2.4
		c0,0.1-0.1,0.2-0.1,0.3c-0.2,0.2-0.4,0.3-0.6,0.4c-0.4,0.1-0.9,0.2-1.3,0.2c-1,0.1-1.7,0.9-1.7,1.8v0.8c0,1,0.8,1.8,1.8,1.8h10.6
		c1,0,1.8-0.8,1.8-1.8v-0.8C30.5,138.7,29.8,137.9,28.9,137.8z"/>
	<path class="st2" d="M39.1,117.6c-3.1,0-5.7,1.3-7.6,3.9c-1.8,2.3-2.7,5.2-2.7,8.5c0,3.5,0.9,6.5,2.8,8.8c2,2.5,4.6,3.8,7.6,3.8
		c3.4,0,6.1-1.5,8.1-4.5c1.6-2.4,2.4-5.1,2.4-8.1c0-3.7-1-6.7-2.9-8.9C44.9,118.8,42.3,117.6,39.1,117.6z M43.8,131.3
		c0,2.5-0.5,4.3-1.6,5.4c-0.7,0.6-1.4,1-2.3,1c-1.1,0-2.4-0.3-3.6-2.9c-0.9-1.9-1.4-4.3-1.3-6.9c0-1.8,0.5-3.2,1.3-4.1
		c0.7-0.7,1.5-1.1,2.6-1.1c1.4,0,2.4,0.7,3.3,2.1C43.2,126.4,43.8,128.6,43.8,131.3z"/>
	<path class="st2" d="M69.4,136c-0.6-0.3-1.4-0.2-1.9,0.2c-0.1,0.1-0.2,0.2-0.3,0.2c-0.1-0.2-0.1-0.6-0.1-1.3v-8.6
		c0-2.6-0.2-4.2-0.7-5.4c-0.7-1.6-2.5-3.6-6.6-3.6c-2.5,0-4.6,0.8-6.1,2.3c-1.4,1.3-2,2.7-2,4.4c0,2.7,1.7,3.7,3.2,3.7
		c1,0,1.9-0.5,2.6-1.4c0.5-0.7,0.7-1.6,0.6-2.5c0-0.5-0.1-0.9-0.1-1.3c0.1,0,0.2-0.1,0.3-0.2c0.4-0.3,0.8-0.4,1.3-0.4
		c0.8,0,1.4,0.1,1.6,0.4c0.3,0.3,0.4,0.8,0.3,1.6l-0.1,1.5c-3.4,1.5-5.7,2.8-7,3.8c-2.3,1.8-3.4,4.1-3.4,6.7c0,1.9,0.6,3.5,1.7,4.6
		c1.1,1.1,2.4,1.7,4.1,1.7c1.5,0,3.2-0.8,5.4-2.4c0.8,2,2.1,2.4,3.2,2.4c1.8,0,3.4-1,4.9-2.9c0.2-0.3,0.4-0.7,0.4-1.1v-1
		C70.4,136.9,70,136.3,69.4,136z M60.5,135.8c-1.2,0.8-1.8,0.8-1.9,0.8c-0.8-0.1-1.4-0.3-1.4-1.9v-0.1c0-0.5,0.4-1.9,4.2-3.7v3.3
		C61.4,134.9,61.1,135.4,60.5,135.8z"/>
	<path class="st2" d="M84.3,117.7c-1.3,0-2.6,0.6-3.7,1.7c0,0,0,0,0,0c-0.1-0.5-0.4-1-0.8-1.3c-0.5-0.3-1.2-0.4-1.8-0.1
		c-2.3,1.1-4.1,1.9-5.3,2.3c-0.7,0.3-1.2,1-1.2,1.7v0.7c0,0.6,0.3,1.1,0.7,1.5c0.5,0.3,1,0.5,1.6,0.3c0,0,0.2-0.1,0.7-0.1
		c0,0,0.2,0.2,0.2,1.3v10.5c0,1-0.2,1.3-0.2,1.3c0,0-0.4,0.2-1.5,0.5c-0.9,0.2-1.5,0.9-1.5,1.8v0.7c0,1,0.8,1.8,1.8,1.8h9.2
		c1,0,1.8-0.8,1.8-1.8v-0.7c0-1-0.8-1.8-1.7-1.8c-1.3-0.1-1.6-0.3-1.6-0.3c-0.2-0.1-0.4-0.7-0.4-1.7l0-8.7c0-0.1,0-0.6,0.9-1.9
		c0.4-0.5,0.7-0.9,0.8-1c0.1,0,0.1,0.1,0.2,0.1c0.8,0.5,1.7,0.7,2.5,0.7c1.8,0,3.1-1.3,3.1-3.3C88.2,119.3,86.7,117.7,84.3,117.7z"
		/>
	<path class="st2" d="M108.7,136.4L108.7,136.4c-0.4-0.3-0.8-0.5-1.3-0.5c-0.6,0-0.9,0-1-0.1c0-0.1-0.1-0.4-0.1-1.1v-25.2
		c0-0.6-0.3-1.2-0.8-1.5c-0.5-0.3-1.1-0.4-1.7-0.2c-2.2,0.9-3.9,1.5-5,1.8c-0.8,0.2-1.4,0.9-1.4,1.8v0.8c0,0.5,0.2,1,0.6,1.4
		c0.4,0.3,0.9,0.5,1.5,0.4c0,0,0.1,0,0.4,0c0.4,0,0.5,0,0.5,1v3.8c-1-0.5-2.1-0.8-3.1-0.8c-2.8,0-5.2,1.4-7.2,4.1
		c-1.9,2.5-2.8,5.5-2.8,8.8c0,4.5,1.2,7.8,3.6,9.9c1.6,1.3,3.4,2,5.4,2c1.5,0,2.9-0.4,4.2-1.2c0.1,0.4,0.4,0.7,0.7,1
		c0.3,0.2,0.6,0.3,1,0.3c0.3,0,0.5-0.1,0.7-0.2c2.4-1,4.1-1.8,5.2-2.2c0.7-0.3,1.1-0.9,1.1-1.7v-0.8
		C109.3,137.2,109.1,136.7,108.7,136.4z M99.5,126.2v8.5c-0.1,0.4-0.4,0.9-0.9,1.3c-0.6,0.5-1.1,0.8-1.7,0.9
		c-1.1,0.1-1.9-0.3-2.7-1.3c-1.2-1.4-1.8-3.5-1.8-6.4c0-2.4,0.5-4.2,1.6-5.4c0.7-0.8,1.6-1.1,2.6-1.1c0.7,0,1.3,0.3,1.9,0.9
		C99.2,124.3,99.5,125.1,99.5,126.2z"/>
</g>
</svg>
