<?xml version="1.0" encoding="utf-8"?>
<!-- Generator: Adobe Illustrator 26.1.0, SVG Export Plug-In . SVG Version: 6.00 Build 0)  -->
<svg version="1.1" id="Layer_1" xmlns="http://www.w3.org/2000/svg" xmlns:xlink="http://www.w3.org/1999/xlink" x="0px" y="0px"
	 viewBox="0 0 115 106" style="enable-background:new 0 0 115 106;" xml:space="preserve">
<style type="text/css">
	.st0{display:none;}
	.st1{display:inline;opacity:0.46;enable-background:new    ;}
	.st2{fill:#9F4A23;}
	.st3{fill:#4E542E;}
	.st4{fill:#CB9531;}
</style>
<g id="Layer_3" class="st0">
	<rect x="-5.5" y="-13.5" class="st1" width="124" height="124"/>
</g>
<path class="st2" d="M104.8,89.5c-2.7-4.5-6.3-6.7-9.3-7.8c2.6-2.8,4.9-6,7-9.7c0.1-0.2,0.2-0.4,0.3-0.6c0.1-0.1,0.1-0.2,0.2-0.4
	c0.4-0.7,0.5-1.7,0.2-2.5c-0.2-0.7-0.8-1.3-1.7-1.9l-0.2-0.1c-1.6-0.7-3.4-0.1-4.2,1.5L97,68.2c-0.1,0.2-0.2,0.4-0.3,0.7
	c-3.5,6.2-8.4,11.5-14.3,15.3c-9.2,5.8-21.2,7.9-32.3,5.6c-4.4-0.9-8.5-2.4-12.2-4.5c-7.6-4.3-14-10.6-17.6-17.4
	c-0.8-1.5-2.6-2.2-4.2-1.5l-0.2,0.1c0,0-0.1,0-0.1,0.1c-0.9,0.4-1.4,1-1.7,1.9c-0.2,0.7-0.2,1.6,0.2,2.5c0.9,1.8,2,3.5,3.2,5.1
	l-6.6-0.6c-1.7-0.1-3.3,1.1-3.5,2.9v0.2c-0.2,0.9-0.1,1.7,0.4,2.4c0.5,0.7,1.3,1.2,2.2,1.2l13.8,1.3c3.2,2.9,6.7,5.5,10.6,7.6
	c4.5,2.5,9.2,4.2,14.2,5.2c3.2,0.7,6.6,1,10.4,1c9.8,0,19.3-2.7,26.9-7.5c1.2-0.8,2.5-1.7,3.7-2.6c1.9,0.2,6.6,1,9.5,5.8
	c0.8,1.4,2.6,1.9,4.1,1.2l0.2-0.1c0.1,0,0.1-0.1,0.2-0.1c0.3-0.2,1.3-0.9,1.6-1.9C105.3,91.2,105.2,90.3,104.8,89.5z"/>
<g>
	<path class="st3" d="M12.1,74.3c0.4,0,0.8-0.4,0.9-0.8c0-0.2,1-5.2-2-9c-2-2.5-5.3-3.9-9.8-4c-0.4,0-0.9,0.3-1,0.8
		c0,0.2-1,4.8,1.2,7.9c3.2,4.7,8.2,5.2,10,5.2C11.8,74.3,12.1,74.3,12.1,74.3z"/>
	<path class="st3" d="M23.4,83.7c-0.3-0.1-6.3-2.3-10.7,1.4c-4.5,3.6-3.5,9-3.4,9.3c0.1,0.4,0.4,0.7,0.7,0.8c0.1,0,1.3,0.3,3,0.3
		c2,0,4.6-0.4,7-2.1c4.6-3.2,4.1-8.6,4-8.8C24,84.1,23.7,83.8,23.4,83.7z"/>
	<path class="st3" d="M91,88.7c-0.4-0.2-1,0-1.2,0.4c-0.1,0.2-3.3,5.2-1.8,9.9c1.4,4.9,8,6.9,8.3,7c0.1,0,0.2,0,0.3,0
		c0.3,0,0.7-0.2,0.8-0.5c0.1-0.2,3.1-5,1.6-9.5C97.4,91.6,91.3,88.8,91,88.7z"/>
	<path class="st3" d="M114.6,77c-0.2-0.1-3.9-3.5-9.9-2.8l0,0C98.6,75,97,80.9,97,81.1c-0.1,0.4,0,0.8,0.3,1c0.2,0.1,3.8,3,8,3
		c1,0,1.9-0.2,2.9-0.5c5.1-1.9,6.6-6.4,6.7-6.6C115,77.7,114.9,77.3,114.6,77z"/>
</g>
<path class="st4" d="M94.8,18.3c-0.1-0.1-0.2-0.3-0.2-0.4c0,0,0-0.1-0.1-0.1c0-0.1-0.1-0.1-0.1-0.2s-0.1-0.2-0.3-0.4
	c-0.2-0.2-0.3-0.3-0.6-0.4c-0.1,0-0.1-0.1-0.2-0.1c0,0-0.1,0-0.1-0.1L60,0.3c-0.9-0.4-1.9-0.4-2.8,0L24.4,16.8c0,0,0,0-0.1,0
	s-0.2,0.1-0.3,0.1c-0.1,0-0.2,0.1-0.2,0.1c-0.1,0-0.2,0.1-0.3,0.2c-0.1,0.1-0.3,0.3-0.4,0.6c0,0,0,0.1-0.1,0.1
	c-0.1,0.3-0.1,0.4-0.1,0.5l0,0c-0.2,0.2-0.3,0.4-0.3,0.7c0,0.1-0.1,0.3-0.1,0.5v45.8c0,0.3,0,0.8,0.4,1.3c0.1,0.1,0.2,0.3,0.2,0.3
	c1.9,2.3,3.8,4.6,6.1,6.8c2,1.9,4.2,3.6,7.1,5.4c3.2,2,6.4,3.5,9.5,4.7c4.8,1.8,9.5,2.7,13.9,2.7c2.6,0,5-0.2,7.1-0.7
	c7-1.6,14-5.6,20.3-11.4c2.5-2.3,4.9-4.9,7.1-7.7c0-0.1,0.1-0.1,0.1-0.2c0.2-0.2,0.4-0.5,0.5-1c0.2-0.4,0.2-0.8,0.2-1.4V19
	C95,18.7,94.9,18.5,94.8,18.3z M65.5,79.8c-1.1,0.2-2.3,0.4-3.4,0.5v-43l4.8-2.3v9.3c0,1,0.6,2,1.4,2.6c0.5,0.3,1,0.5,1.7,0.5
	c0.5,0,0.9-0.1,1.2-0.3h0.1l10.6-5c1.1-0.5,1.8-1.6,1.8-2.8V27l5.2-2.5v39.1c0,0,0,0-0.1,0.1c-4.4,5.2-8.8,9.2-13.6,12.2
	C71.9,77.9,68.7,79.2,65.5,79.8L65.5,79.8z M75.2,24.1l-9.5-4.7l9.5-4.7l9.7,4.8L75.2,24.1z M77.5,30.4v6.9l-4.4,2.1v-6.9L77.5,30.4
	z M58.8,22.8l9.3,4.6l-9.3,4.4l-9.3-4.4L58.8,22.8z M58.8,16l-9.6-4.8l9.4-4.7l9.6,4.8L58.8,16z M32.8,19.4l9.6-4.8l9.5,4.7L42.5,24
	L32.8,19.4z M44.4,32.4v6.9L40,37.2v-6.9L44.4,32.4z M35.7,41.8l10.6,5h0.1c0.4,0.1,0.8,0.3,1.2,0.3c0.6,0,1.2-0.2,1.7-0.5
	c0.9-0.6,1.4-1.6,1.4-2.6v-9.2l4.9,2.3v43.1c-2.6-0.4-5.2-1-7.5-2c-4-1.6-7.6-3.5-10.6-5.7c-3.2-2.3-5.9-4.8-7.9-7.6l-0.7-0.8
	c0-0.1-0.1-0.1-0.1-0.2l0,0V24.4l5.1,2.4V39C33.9,40.1,34.6,41.2,35.7,41.8z"/>
</svg>
