<?xml version="1.0" encoding="utf-8"?>
<!-- Generator: Adobe Illustrator 26.1.0, SVG Export Plug-In . SVG Version: 6.00 Build 0)  -->
<svg version="1.1" id="Layer_1" xmlns="http://www.w3.org/2000/svg" xmlns:xlink="http://www.w3.org/1999/xlink" x="0px" y="0px"
	 viewBox="0 0 206.2 35.3" style="enable-background:new 0 0 206.2 35.3;" xml:space="preserve">
<style type="text/css">
	.st0{display:none;}
	.st1{display:inline;opacity:0.46;enable-background:new    ;}
	.st2{fill:#9F4A23;}
	.st3{fill:#4E542E;}
	.st4{fill:#CB9531;}
	.st5{fill:none;}
</style>
<g id="Layer_3" class="st0">
	<rect x="39.6" y="-121.1" class="st1" width="124" height="124"/>
</g>
<g>
	<path class="st3" d="M138.7,0h-5c-0.5,0-0.9,0.4-0.9,0.9v19.6c0,0.9-1.1,1.2-1.6,0.5L117.8,0.4c-0.2-0.2-0.4-0.4-0.7-0.4h-4.3
		c-0.5,0-0.9,0.4-0.9,0.9v33.4c0,0.5,0.4,0.9,0.9,0.9h5.2c0.5,0,0.9-0.4,0.9-0.9V14.8c0-0.9,1.1-1.2,1.6-0.5l12.9,20.4
		c0.2,0.3,0.4,0.4,0.7,0.4h4.6c0.5,0,0.9-0.4,0.9-0.9V0.8C139.6,0.4,139.2,0,138.7,0z"/>
	<path class="st3" d="M167,18.6c-1.1-5-5.1-8.1-10.1-8.6c-0.7-0.1-1.4-0.1-2.1-0.1c-12.2,0-12.2,12.3-12.2,12.3c0,1,0.1,1.9,0.3,2.8
		c0.4,2.1,1.3,4,2.7,5.6c2.1,2.4,5.1,3.6,8.2,4c3.8,0.5,7.8-0.2,10.7-2.8c0.4-0.4,0.8-0.8,1.2-1.3c0.3-0.4,0.2-0.9-0.2-1.1L162,27
		c-0.4-0.2-0.8-0.2-1.1,0.2c-0.6,0.9-2.2,2.4-5.4,2.4s-5.1-2.6-5.9-4.1c-0.3-0.5,0.1-1.2,0.7-1.2h16.2c0.4,0,0.8-0.4,0.8-0.8
		c0-1.1,0-2.1,0-3.2C167.2,19.7,167.1,19.2,167,18.6z M160.2,20.3h-10.5c-0.5,0-0.9-0.5-0.8-1c0.5-1.6,1.9-4.5,5.9-4.5
		s5.5,2.9,6.1,4.5C161.2,19.7,160.8,20.3,160.2,20.3z"/>
	<path class="st3" d="M181.4,20.2c-1.8-0.3-4-0.8-5.4-2.1c-0.3-0.3-0.6-0.8-0.6-1.2c0-0.3,0.1-0.6,0.2-0.8c0.3-0.5,0.8-0.9,1.4-1.1
		c1.8-0.6,3.9,0,5,1.6c0.2,0.3,0.6,0.4,0.9,0.3l4.1-1.5c0.4-0.2,0.6-0.7,0.4-1.1c-0.7-1.4-2.9-4.3-9.1-4.3c-9.5,0-9.3,7.4-9.3,7.4
		s-0.2,5.7,7.6,7c1.7,0.3,3.7,0.8,4.9,2.1c0.3,0.3,0.5,0.6,0.6,1c0.1,0.5-0.1,1.1-0.4,1.6c-0.8,0.9-2.1,1.2-3.2,1.2
		c-2.7,0-4.3-1.8-4.9-2.8c-0.2-0.3-0.6-0.4-1-0.3l-3.9,1.6c-0.4,0.2-0.6,0.6-0.4,1c0.7,1.6,3.1,5.4,10.7,5.4c9.6,0,9.6-8.1,9.6-8.1
		S188.9,21.8,181.4,20.2z"/>
	<path class="st3" d="M205.4,15.3c0.4,0,0.8-0.4,0.8-0.8v-4c0-0.5-0.4-0.8-0.8-0.8h-4.3c-0.4,0-0.8-0.4-0.8-0.8l0.1-5.9
		c0-0.5-0.4-0.8-0.8-0.8h-4.8c-0.4,0-0.8,0.4-0.8,0.8v4.6c0,1.3-1,2.3-2.3,2.3h-1.4c-0.4,0-0.8,0.4-0.8,0.8v3.8
		c0,0.5,0.4,0.8,0.8,0.8h2.6c0.4,0,0.8,0.4,0.8,0.8v11.2c0,0-0.4,6.4,6.6,7.7c2.6,0.2,4.2,0.2,5,0.1c0.4,0,0.7-0.4,0.7-0.8v-4.1
		c0-0.5-0.4-0.8-0.8-0.8H203c-1.7,0-3-1.4-3-3.1V15.4L205.4,15.3L205.4,15.3z"/>
</g>
<g>
	<path class="st2" d="M28.9,30.2c-0.7-0.1-1.6-0.1-2.1-0.7c-0.4-0.5-0.4-1.4-0.4-2c0-0.4,0-0.9,0-1.3c0-1.1,0-2.2,0-3.4
		c0-1.5,0-3,0-4.5c0-1.6,0-3.2,0-4.7c0-1.4,0-2.7,0-4.1c0-1.5-0.1-3,0.2-4.4c0-0.1,0-0.1,0.1-0.2s0.1-0.1,0.2-0.1
		c0.7-0.2,1.4-0.3,2.2-0.4c0.9-0.2,1.5-0.9,1.5-1.8V1.8c0-1-0.8-1.8-1.8-1.8H18.1c-1,0-1.8,0.8-1.8,1.8v0.8c0,0.7,0.4,1.3,1,1.6
		c0.3,0.2,0.7,0.2,1.1,0.3c0.5,0.1,1,0.2,1.4,0.3c0.1,0,0.2,0,0.2,0.1s0.1,0.1,0.1,0.2c0.3,1.2,0.2,2.5,0.2,3.7s0,2.4,0,3.6
		c0,0.8,0,1.6,0,2.4h-10c0-1.8,0-3.6,0-5.5c0-1.4-0.1-2.9,0.2-4.2c0-0.1,0-0.1,0.1-0.2c0-0.1,0.1-0.1,0.2-0.1
		c0.7-0.2,1.4-0.3,2.1-0.4c0.9-0.1,1.6-0.9,1.6-1.8V1.8c0-1-0.8-1.8-1.8-1.8H1.8C0.8,0,0,0.8,0,1.8v0.8c0,2.1,2.3,1.7,3.6,2.2
		c0.1,0,0.1,0.1,0.2,0.1c0,0,0.1,0.1,0.1,0.2c0.2,1.1,0.2,2.2,0.2,3.3c0,1.2,0,2.3,0,3.5c0,3,0,5.9,0,8.9c0,2,0,4,0,6
		c0,0.1,0,0.2,0,0.2c0,0.8,0.1,2.2-0.6,2.8c-0.4,0.4-1.2,0.4-1.8,0.5C0.8,30.4,0,31.2,0,32.1v0.8c0,1,0.8,1.8,1.8,1.8h10.7
		c1,0,1.8-0.8,1.8-1.8v-0.8c0-1.7-1.6-1.8-2.9-2.1c-0.3-0.1-0.6-0.1-0.8-0.4c-0.1-0.1-0.2-0.3-0.2-0.5c-0.2-0.8-0.2-9.3-0.2-9.3h10
		v7.1c0,0.8,0,1.7-0.3,2.4c0,0.1-0.1,0.2-0.1,0.3c-0.2,0.2-0.4,0.3-0.6,0.4c-0.4,0.1-0.9,0.2-1.3,0.2c-1,0.1-1.7,0.9-1.7,1.8v0.8
		c0,1,0.8,1.8,1.8,1.8h10.6c1,0,1.8-0.8,1.8-1.8V32C30.5,31.1,29.8,30.3,28.9,30.2z"/>
	<path class="st2" d="M39.1,10c-3.1,0-5.7,1.3-7.6,3.9c-1.8,2.3-2.7,5.2-2.7,8.5c0,3.5,0.9,6.5,2.8,8.8c2,2.5,4.6,3.8,7.6,3.8
		c3.4,0,6.1-1.5,8.1-4.5c1.6-2.4,2.4-5.1,2.4-8.1c0-3.7-1-6.7-2.9-8.9C44.9,11.2,42.3,10,39.1,10z M43.8,23.7c0,2.5-0.5,4.3-1.6,5.4
		c-0.7,0.6-1.4,1-2.3,1c-1.1,0-2.4-0.3-3.6-2.9c-0.9-1.9-1.4-4.3-1.3-6.9c0-1.8,0.5-3.2,1.3-4.1c0.7-0.7,1.5-1.1,2.6-1.1
		c1.4,0,2.4,0.7,3.3,2.1C43.2,18.8,43.8,21,43.8,23.7z"/>
	<path class="st2" d="M69.4,28.4c-0.6-0.3-1.4-0.2-1.9,0.2c-0.1,0.1-0.2,0.2-0.3,0.2c-0.1-0.2-0.1-0.6-0.1-1.3v-8.6
		c0-2.6-0.2-4.2-0.7-5.4c-0.7-1.6-2.5-3.6-6.6-3.6c-2.5,0-4.6,0.8-6.1,2.3c-1.4,1.3-2,2.7-2,4.4c0,2.7,1.7,3.7,3.2,3.7
		c1,0,1.9-0.5,2.6-1.4c0.5-0.7,0.7-1.6,0.6-2.5c0-0.5-0.1-0.9-0.1-1.3c0.1,0,0.2-0.1,0.3-0.2c0.4-0.3,0.8-0.4,1.3-0.4
		c0.8,0,1.4,0.1,1.6,0.4c0.3,0.3,0.4,0.8,0.3,1.6L61.4,18c-3.4,1.5-5.7,2.8-7,3.8c-2.3,1.8-3.4,4.1-3.4,6.7c0,1.9,0.6,3.5,1.7,4.6
		c1.1,1.1,2.4,1.7,4.1,1.7c1.5,0,3.2-0.8,5.4-2.4c0.8,2,2.1,2.4,3.2,2.4c1.8,0,3.4-1,4.9-2.9c0.2-0.3,0.4-0.7,0.4-1.1v-1
		C70.4,29.3,70,28.7,69.4,28.4z M60.5,28.2C59.3,29,58.7,29,58.6,29c-0.8-0.1-1.4-0.3-1.4-1.9V27c0-0.5,0.4-1.9,4.2-3.7v3.3
		C61.4,27.3,61.1,27.8,60.5,28.2z"/>
	<path class="st2" d="M84.3,10.1c-1.3,0-2.6,0.6-3.7,1.7l0,0c-0.1-0.5-0.4-1-0.8-1.3c-0.5-0.3-1.2-0.4-1.8-0.1
		c-2.3,1.1-4.1,1.9-5.3,2.3c-0.7,0.3-1.2,1-1.2,1.7v0.7c0,0.6,0.3,1.1,0.7,1.5c0.5,0.3,1,0.5,1.6,0.3c0,0,0.2-0.1,0.7-0.1
		c0,0,0.2,0.2,0.2,1.3v10.5c0,1-0.2,1.3-0.2,1.3s-0.4,0.2-1.5,0.5c-0.9,0.2-1.5,0.9-1.5,1.8v0.7c0,1,0.8,1.8,1.8,1.8h9.2
		c1,0,1.8-0.8,1.8-1.8v-0.7c0-1-0.8-1.8-1.7-1.8c-1.3-0.1-1.6-0.3-1.6-0.3c-0.2-0.1-0.4-0.7-0.4-1.7v-8.7c0-0.1,0-0.6,0.9-1.9
		c0.4-0.5,0.7-0.9,0.8-1c0.1,0,0.1,0.1,0.2,0.1c0.8,0.5,1.7,0.7,2.5,0.7c1.8,0,3.1-1.3,3.1-3.3C88.2,11.7,86.7,10.1,84.3,10.1z"/>
	<path class="st2" d="M108.7,28.8L108.7,28.8c-0.4-0.3-0.8-0.5-1.3-0.5c-0.6,0-0.9,0-1-0.1c0-0.1-0.1-0.4-0.1-1.1V1.9
		c0-0.6-0.3-1.2-0.8-1.5s-1.1-0.4-1.7-0.2c-2.2,0.9-3.9,1.5-5,1.8c-0.8,0.2-1.4,0.9-1.4,1.8v0.8c0,0.5,0.2,1,0.6,1.4
		c0.4,0.3,0.9,0.5,1.5,0.4c0,0,0.1,0,0.4,0c0.4,0,0.5,0,0.5,1v3.8c-1-0.5-2.1-0.8-3.1-0.8c-2.8,0-5.2,1.4-7.2,4.1
		c-1.9,2.5-2.8,5.5-2.8,8.8c0,4.5,1.2,7.8,3.6,9.9c1.6,1.3,3.4,2,5.4,2c1.5,0,2.9-0.4,4.2-1.2c0.1,0.4,0.4,0.7,0.7,1
		c0.3,0.2,0.6,0.3,1,0.3c0.3,0,0.5-0.1,0.7-0.2c2.4-1,4.1-1.8,5.2-2.2c0.7-0.3,1.1-0.9,1.1-1.7v-0.8
		C109.3,29.6,109.1,29.1,108.7,28.8z M99.5,18.6v8.5c-0.1,0.4-0.4,0.9-0.9,1.3c-0.6,0.5-1.1,0.8-1.7,0.9C95.8,29.4,95,29,94.2,28
		c-1.2-1.4-1.8-3.5-1.8-6.4c0-2.4,0.5-4.2,1.6-5.4c0.7-0.8,1.6-1.1,2.6-1.1c0.7,0,1.3,0.3,1.9,0.9C99.2,16.7,99.5,17.5,99.5,18.6z"
		/>
</g>
</svg>
